#!OML:ASF I:\golf\golf\golf 2\Subject 1\2002-09-07\Subject1.ASF
:FULLY-SPECIFIED
:DEGREES
159
root -7.12876 17.6352 1.88317 -139.602 86.5837 -155.099
lowerback 1.81468 1.86748 -1.24909
upperback 2.18008 2.53613 4.29142
thorax 0.975862 1.26055 5.10347
lowerneck -14.0785 -2.91362 0.397478
upperneck 42.5516 -0.271999 -4.01241
head 18.3344 0.173124 -1.77134
rclavicle 3.85642e-014 -6.36111e-015
rhumerus -6.77387 -2.26251 -101.755
rradius 24.3824
rwrist -45.068
rhand -17.5618 -13.4207
rfingers 7.12502
rthumb 8.69326 -43.2217
lclavicle 3.85642e-014 -6.36111e-015
lhumerus -7.63366 -40.3351 108.679
lradius 22.567
lwrist 28.7323
lhand -10.6884 70.2822
lfingers 7.12502
lthumb -164.679 80.3053
rfemur -28.9543 -5.20468 9.13331
rtibia 31.6896
rfoot -10.7678 -9.03115
rtoes -7.53859
lfemur -30.2913 8.12009 -10.3459
ltibia 32.0343
lfoot -13.3653 -6.8451
ltoes -19.5116
160
root -7.12892 17.6371 1.88141 -138.96 86.5667 -154.458
lowerback 1.8041 1.84281 -1.28877
upperback 2.17996 2.50391 4.3461
thorax 0.980928 1.2441 5.18426
lowerneck -14.0913 -2.88729 0.351912
upperneck 42.5547 -0.208615 -4.02834
head 18.3437 0.188443 -1.75921
rclavicle -4.77083e-015 -1.74931e-014
rhumerus -6.76842 -2.13046 -101.723
rradius 24.3472
rwrist -44.9439
rhand -17.4274 -13.4679
rfingers 7.12502
rthumb 8.82292 -43.2635
lclavicle -4.77083e-015 -1.74931e-014
lhumerus -7.61327 -40.2837 108.705
lradius 22.5565
lwrist 28.8135
lhand -10.7058 70.2866
lfingers 7.12502
lthumb -164.696 80.2996
rfemur -28.9176 -5.19662 9.17219
rtibia 31.6199
rfoot -10.844 -8.98859
rtoes -6.68422
lfemur -30.271 8.0959 -10.2842
ltibia 32.0663
lfoot -13.3542 -6.86888
ltoes -19.0017
161
root -7.12975 17.6382 1.87758 -138.556 86.5655 -154.039
lowerback 1.81694 1.80787 -1.33301
upperback 2.18735 2.45829 4.40897
thorax 0.981574 1.22095 5.27586
lowerneck -14.0701 -2.85878 0.345434
upperneck 42.5069 -0.123972 -4.13452
head 18.3129 0.204794 -1.79124
rclavicle 7.95139e-015 2.22639e-014
rhumerus -6.74087 -2.06376 -101.673
rradius 24.2686
rwrist -44.7801
rhand -17.3038 -13.5095
rfingers 7.12502
rthumb 8.94222 -43.3
lclavicle 7.95139e-015 2.22639e-014
lhumerus -7.55265 -40.0946 108.745
lradius 22.4889
lwrist 28.7267
lhand -10.6892 70.2476
lfingers 7.12502
lthumb -164.68 80.3398
rfemur -28.8779 -5.21627 9.18467
rtibia 31.555
rfoot -10.8262 -8.90244
rtoes -6.84983
lfemur -30.2417 8.05531 -10.2503
ltibia 32.1041
lfoot -13.3732 -6.85245
ltoes -18.7636
162
root -7.13093 17.6375 1.87548 -137.275 86.5268 -152.732
lowerback 1.85887 1.79485 -1.24246
upperback 2.17627 2.44362 4.43726
thorax 0.950532 1.21583 5.25239
lowerneck -14.0047 -2.8416 0.355784
upperneck 42.4709 -0.0907964 -4.16573
head 18.2744 0.215143 -1.79963
rclavicle -1.15295e-014 1.90833e-014
rhumerus -6.68332 -2.31446 -101.692
rradius 24.1351
rwrist -44.5738
rhand -17.2089 -13.4795
rfingers 7.12502
rthumb 9.03374 -43.2661
lclavicle -1.15295e-014 1.90833e-014
lhumerus -7.58424 -40.0463 108.767
lradius 22.4892
lwrist 28.6488
lhand -10.5834 70.2646
lfingers 7.12502
lthumb -164.578 80.3307
rfemur -28.8383 -5.18933 9.27137
rtibia 31.505
rfoot -10.7878 -8.89055
rtoes -6.61222
lfemur -30.266 8.09654 -10.1767
ltibia 32.1373
lfoot -13.41 -6.81353
ltoes -19.2536
163
root -7.131 17.6372 1.87396 -136.16 86.4887 -151.609
lowerback 1.86267 1.7948 -1.15002
upperback 2.16996 2.44525 4.4437
thorax 0.94511 1.21821 5.2062
lowerneck -14.0089 -2.83861 0.37236
upperneck 42.4951 -0.0878904 -4.16504
head 18.2901 0.220041 -1.80242
rclavicle -3.53837e-014 -2.38542e-014
rhumerus -6.65121 -2.55065 -101.723
rradius 24.0973
rwrist -44.5369
rhand -17.1132 -13.4872
rfingers 7.12502
rthumb 9.12613 -43.2698
lclavicle -3.53837e-014 -2.38542e-014
lhumerus -7.5948 -40.0488 108.778
lradius 22.4824
lwrist 28.5283
lhand -10.4414 70.4484
lfingers 7.12502
lthumb -164.441 80.1575
rfemur -28.8283 -5.16978 9.35432
rtibia 31.4829
rfoot -10.6988 -8.93061
rtoes -7.30446
lfemur -30.295 8.08641 -10.1005
ltibia 32.1562
lfoot -13.4506 -6.70866
ltoes -19.853
164
root -7.13144 17.6388 1.87215 -135.898 86.5067 -151.34
lowerback 1.86943 1.80666 -1.15477
upperback 2.17061 2.46101 4.43965
thorax 0.940417 1.2261 5.20415
lowerneck -14.0553 -2.85143 0.337285
upperneck 42.5381 -0.106398 -4.1281
head 18.3289 0.212849 -1.78391
rclavicle -7.15625e-015 -4.45278e-014
rhumerus -6.61615 -2.79541 -101.732
rradius 24.0403
rwrist -44.47
rhand -16.9493 -13.4291
rfingers 7.12502
rthumb 9.2843 -43.2047
lclavicle -7.15625e-015 -4.45278e-014
lhumerus -7.59123 -40.1075 108.827
lradius 22.442
lwrist 28.352
lhand -10.4029 70.6467
lfingers 7.12502
lthumb -164.404 79.962
rfemur -28.8307 -5.14715 9.34715
rtibia 31.4831
rfoot -10.5702 -8.96825
rtoes -9.01951
lfemur -30.2429 7.98255 -10.0631
ltibia 32.1577
lfoot -13.4517 -6.62329
ltoes -19.5453
165
root -7.13359 17.6401 1.87267 -135.909 86.5677 -151.351
lowerback 1.8897 1.81805 -1.25628
upperback 2.16599 2.47529 4.44903
thorax 0.918444 1.23229 5.27061
lowerneck -14.0487 -2.85048 0.30239
upperneck 42.5132 -0.107724 -4.1065
head 18.3124 0.208298 -1.76696
rclavicle 1.47101e-014 -1.59028e-015
rhumerus -6.61355 -2.86699 -101.725
rradius 24.0004
rwrist -44.5522
rhand -17.0134 -13.2774
rfingers 7.12502
rthumb 9.22244 -43.0558
lclavicle 1.47101e-014 -1.59028e-015
lhumerus -7.60676 -40.1675 108.887
lradius 22.4149
lwrist 28.1477
lhand -10.4499 70.8628
lfingers 7.12502
lthumb -164.45 79.7424
rfemur -28.8536 -5.12172 9.30689
rtibia 31.4971
rfoot -10.5335 -8.97443
rtoes -9.72492
lfemur -30.1994 7.9852 -10.0848
ltibia 32.1492
lfoot -13.4319 -6.63772
ltoes -19.1207
166
root -7.13526 17.6392 1.87298 -135.84 86.6087 -151.322
lowerback 1.84836 1.81416 -1.3233
upperback 2.16539 2.46853 4.44884
thorax 0.939029 1.22749 5.31022
lowerneck -14.0245 -2.82676 0.364057
upperneck 42.4404 -0.0765038 -4.17401
head 18.2618 0.218377 -1.80239
rclavicle 1.98785e-015 -1.43125e-014
rhumerus -6.62353 -2.75459 -101.729
rradius 24.0371
rwrist -44.7704
rhand -17.1989 -13.1938
rfingers 7.12502
rthumb 9.04337 -42.9799
lclavicle 1.98785e-015 -1.43125e-014
lhumerus -7.57454 -40.2864 108.87
lradius 22.4035
lwrist 28.1016
lhand -10.4316 70.9968
lfingers 7.12502
lthumb -164.432 79.6098
rfemur -28.9219 -5.12739 9.29197
rtibia 31.5219
rfoot -10.5257 -8.98376
rtoes -9.73261
lfemur -30.273 8.03725 -10.1319
ltibia 32.151
lfoot -13.4038 -6.61455
ltoes -19.3704
167
root -7.13658 17.637 1.87231 -134.747 86.6276 -150.273
lowerback 1.79672 1.81739 -1.29682
upperback 2.16414 2.47258 4.44937
thorax 0.967304 1.22935 5.29752
lowerneck -14.0001 -2.80369 0.411586
upperneck 42.3753 -0.044396 -4.23027
head 18.2163 0.228411 -1.82986
rclavicle 5.4467e-014 8.11041e-014
rhumerus -6.60779 -2.80137 -101.745
rradius 24.0311
rwrist -44.7777
rhand -17.2393 -13.211
rfingers 7.12502
rthumb 9.00442 -42.9989
lclavicle 5.4467e-014 8.11041e-014
lhumerus -7.51297 -40.4232 108.821
lradius 22.3561
lwrist 28.1192
lhand -10.2361 70.7616
lfingers 7.12502
lthumb -164.244 79.8597
rfemur -29.0127 -5.09354 9.33438
rtibia 31.5523
rfoot -10.532 -8.97718
rtoes -9.49541
lfemur -30.3446 8.05905 -10.1031
ltibia 32.1681
lfoot -13.4044 -6.51012
ltoes -19.7449
